# xmcd
#
# Track frame offsets:
#	150
#	18817
#	30966
#	43089
#	62752
#	75010
#	87874
#	97639
#	109760
#	122507
#	135978
#	150945
#	164633
#	177000
#	194839
#	216737
#
# Disc length: 2895 seconds
#
# Revision: 1
# Processed by: cddbd v1.5.2PL0 Copyright (c) Steve Scherf et al.
# Submitted via: audiograbber 1.83.01
#
DISCID=bc0b4d10
DTITLE=Various Artist - ASK038 2
DYEAR=2006
DGENRE=Country
TTITLE0=Hank Williams Jr - Family Tradition
TTITLE1=Johnny Cash - Folsom Prison Blues
TTITLE2=Johnny Cash - I Walk The Line
TTITLE3=Kenny Rogers and First Edition - Lucille
TTITLE4=Kitty Wells - It Wasn't God Who Made Honky Tonk Angels
TTITLE5=Merle Haggard - Make It Through December
TTITLE6=Merle Haggard - Mama Tried
TTITLE7=Osborne Brothers - Rocky Top
TTITLE8=Patsy Cline - Crazy
TTITLE9=Patsy Cline - I Fell To Pieces
TTITLE10=Rosanne Cash - Seven Year Ache
TTITLE11=Tammy Wynette - D I V O R C E
TTITLE12=Tammy Wynette - Stand By Your Man
TTITLE13=Vern Gosdin - Chiseled In Stone
TTITLE14=Webb Pierce - In The Jailhouse Now
TTITLE15=Data Track  - Data Track
EXTD=All Star Karaoke Clasic Country
EXTT0=
EXTT1=
EXTT2=
EXTT3=
EXTT4=
EXTT5=
EXTT6=
EXTT7=
EXTT8=
EXTT9=
EXTT10=
EXTT11=
EXTT12=
EXTT13=
EXTT14=
EXTT15=
PLAYORDER=
